<svg width="116" height="20" viewBox="0 0 116 20" fill="none" xmlns="http://www.w3.org/2000/svg">
<path d="M3.825 20L5.45 12.6053L0 7.63158L7.2 6.97368L10 0L12.8 6.97368L20 7.63158L14.55 12.6053L16.175 20L10 16.0789L3.825 20Z" fill="#F4B600"/>
<path d="M27.825 20L29.45 12.6053L24 7.63158L31.2 6.97368L34 0L36.8 6.97368L44 7.63158L38.55 12.6053L40.175 20L34 16.0789L27.825 20Z" fill="#F4B600"/>
<path d="M51.825 20L53.45 12.6053L48 7.63158L55.2 6.97368L58 0L60.8 6.97368L68 7.63158L62.55 12.6053L64.175 20L58 16.0789L51.825 20Z" fill="#F4B600"/>
<path d="M75.825 20L77.45 12.6053L72 7.63158L79.2 6.97368L82 0L84.8 6.97368L92 7.63158L86.55 12.6053L88.175 20L82 16.0789L75.825 20Z" fill="#F4B600"/>
<path d="M99.825 20L101.45 12.6053L96 7.63158L103.2 6.97368L106 0L108.8 6.97368L116 7.63158L110.55 12.6053L112.175 20L106 16.0789L99.825 20Z" fill="#F4B600"/>
</svg>

